<svg xmlns="http://www.w3.org/2000/svg" version="1.1" viewBox="0 0 78 24" width="78" height="24">
    <path d="M52.04 24H1.96a1.92 1.92 0 0 1-1.92-1.92V1.92C.04.86.9 0 1.96 0h50.08v24Z"></path>
    <path d="M5.41 4.9h2.21v3.5l-.09 1.82c.79-.74 1.72-1.42 3.01-1.42 2.01 0 2.89 1.36 2.89 3.74v5.9h-2.21v-5.61c0-1.55-.44-2.13-1.46-2.13-.83 0-1.37.41-2.14 1.17v6.57H5.41V4.9Zm10.06 8.83c0 3.1 2.04 4.93 4.63 4.93 1.19 0 2.33-.41 3.22-1.02l-.75-1.37c-.69.43-1.38.68-2.18.68-1.52 0-2.59-.95-2.77-2.62h5.97c.05-.23.1-.65.1-1.07 0-2.63-1.34-4.47-3.88-4.47-2.21 0-4.33 1.88-4.33 4.94Zm6.31-.9H17.6c.19-1.51 1.16-2.33 2.25-2.33 1.29 0 1.93.88 1.93 2.33Zm3.76-6.7c0 .73.58 1.25 1.36 1.25s1.36-.52 1.36-1.25-.58-1.25-1.36-1.25-1.36.51-1.36 1.25Zm.25 2.9v9.4H28v-9.4h-2.21Zm4.08 8.33c.92.76 2.28 1.31 3.56 1.31 2.37 0 3.65-1.3 3.65-2.92 0-1.75-1.42-2.37-2.7-2.84-1.02-.37-1.97-.66-1.97-1.4 0-.59.45-1.04 1.39-1.04.74 0 1.4.34 2.06.82l1.01-1.35c-.77-.59-1.82-1.13-3.12-1.13-2.11 0-3.42 1.18-3.42 2.81s1.41 2.28 2.64 2.74c1 .38 2.02.73 2.02 1.52 0 .64-.48 1.13-1.51 1.13-.95 0-1.76-.4-2.6-1.05l-1.03 1.4Zm8.57-3.62c0 3.1 2.04 4.93 4.63 4.93 1.19 0 2.33-.41 3.22-1.02l-.75-1.37c-.69.43-1.38.68-2.18.68-1.52 0-2.59-.95-2.77-2.62h5.97c.05-.23.1-.65.1-1.07 0-2.63-1.34-4.47-3.88-4.47-2.21 0-4.33 1.88-4.33 4.94Zm6.31-.9h-4.18c.19-1.51 1.16-2.33 2.25-2.33 1.29 0 1.93.88 1.93 2.33Z" fill="#fff"></path>
    <path d="M53.99.01h22c1.1 0 2 .9 2 2v20c0 1.1-.9 2-2 2h-22v-24Z" fill="#1b3f8f"></path>
    <path d="M65.98 4.19c.78 0 1.42.64 1.42 1.42v12.82c0 .78-.64 1.42-1.42 1.42s-1.42-.64-1.42-1.42v-4.98h-4.98a1.43 1.43 0 1 1 0-2.86h4.98V5.61c0-.78.63-1.42 1.42-1.42Zm6.4 6.4h-2.83a1.43 1.43 0 1 0 0 2.86h2.83a1.43 1.43 0 1 0 0-2.86Z" fill="#fff"></path>
</svg>